PathFileType        4      (X/Y/Z)      C:\Users\pc\Desktop\IMUTRC\Sujet_08\Sujet_08_Tpose.trc         
DataRate	CameraRate	NumFrames	NumMarkers	Units	OrigDataRate	OrigDataStartFrame	OrigNumFrames
60.0	60.0	4	64	mm	60.0	123	163
Frame#	Time	pHipOrigin			pRightASI			pLeftASI			pRightCSI			pLeftCSI			pRightIschialTub			pLeftIschialTub			pSacrum			pL5SpinalProcess			pL3SpinalProcess			pT12SpinalProcess			pIJ			pT4SpinalProcess			pT8SpinalProcess			pPX			pC7SpinalProcess			pTopOfHead			pRightAuricularis			pLeftAuricularis			pBackOfHead			pRightAcromion			pLeftAcromion			pRightArmLatEpicondyle			pRightArmMedEpicondyle			pLeftArmLatEpicondyle			pLeftArmMedEpicondyle			pRightUlnarStyloid			pRightRadialStyloid			pRightOlecranon			pLeftUlnarStyloid			pLeftRadialStyloid			pLeftOlecranon			pRightTopOfHand			pRightPinky			pRightBallHand			pLeftTopOfHand			pLeftPinky			pLeftBallHand			pRightGreaterTrochanter			pRightKneeLatEpicondyle			pRightKneeMedEpicondyle			pRightPatella			pLeftGreaterTrochanter			pLeftKneeLatEpicondyle			pLeftKneeMedEpicondyle			pLeftPatella			pRightTibialTub			pRightLatMalleolus			pRightMedMalleolus			pLeftTibialTub			pLeftLatMalleolus			pLeftMedMalleolus			pRightHeelFoot			pRightFirstMetatarsal			pRightFifthMetatarsal			pRightPivotFoot			pRightHeelCenter			pRightToe			pLeftHeelFoot			pLeftFirstMetatarsal			pLeftFifthMetatarsal			pLeftPivotFoot			pLeftHeelCenter			pLeftToe			
		X1	Y1	Z1	X2	Y2	Z2	X3	Y3	Z3	X4	Y4	Z4	X5	Y5	Z5	X6	Y6	Z6	X7	Y7	Z7	X8	Y8	Z8	X9	Y9	Z9	X10	Y10	Z10	X11	Y11	Z11	X12	Y12	Z12	X13	Y13	Z13	X14	Y14	Z14	X15	Y15	Z15	X16	Y16	Z16	X17	Y17	Z17	X18	Y18	Z18	X19	Y19	Z19	X20	Y20	Z20	X21	Y21	Z21	X22	Y22	Z22	X23	Y23	Z23	X24	Y24	Z24	X25	Y25	Z25	X26	Y26	Z26	X27	Y27	Z27	X28	Y28	Z28	X29	Y29	Z29	X30	Y30	Z30	X31	Y31	Z31	X32	Y32	Z32	X33	Y33	Z33	X34	Y34	Z34	X35	Y35	Z35	X36	Y36	Z36	X37	Y37	Z37	X38	Y38	Z38	X39	Y39	Z39	X40	Y40	Z40	X41	Y41	Z41	X42	Y42	Z42	X43	Y43	Z43	X44	Y44	Z44	X45	Y45	Z45	X46	Y46	Z46	X47	Y47	Z47	X48	Y48	Z48	X49	Y49	Z49	X50	Y50	Z50	X51	Y51	Z51	X52	Y52	Z52	X53	Y53	Z53	X54	Y54	Z54	X55	Y55	Z55	X56	Y56	Z56	X57	Y57	Z57	X58	Y58	Z58	X59	Y59	Z59	X60	Y60	Z60	X61	Y61	Z61	X62	Y62	Z62	X63	Y63	Z63	X64	Y64	Z64	
123	2.033	2465.7705522266338	911.6292100000001	-985.5450301873027	2521.2125705576477	1015.20141	-853.9429144311838	2524.9073164479832	1011.8082500000002	-1118.2591461297015	2472.765578745089	1076.43988	-878.6260784471255	2476.0048429827148	1073.69304	-1096.3380002562765	2415.2157629759167	852.6528400000001	-931.2110888480919	2416.807758588887	851.1986300000001	-1039.9911336959346	2398.997904120185	926.9792200000002	-986.807135102642	2426.5380388090107	1018.1098300000001	-986.4124839100313	2419.9254106086732	1128.95308	-985.7241971864214	2399.6872992587478	1228.00106	-983.976978767185	2496.6800654782414	1463.58337	-988.738589209878	2362.3583050648194	1411.23175	-979.6809441210754	2376.7708765039583	1326.72589	-981.4850981744261	2521.08748117923	1349.0238	-991.547541973103	2354.0743869761227	1465.6839	-975.8180818747273	2399.177092647392	1715.48517	-985.8821665900331	2423.2473719456502	1620.9614	-922.0976597740167	2379.2895247800548	1619.83035	-1049.3479292162283	2351.214651420294	1619.34561	-968.4334513244544	2393.565965772308	1439.50809	-823.5413349100098	2362.4464581016987	1435.63019	-1138.185721737741	2425.128117596898	1429.49019	-558.7729562005663	2484.200725605036	1413.97859	-567.535287584577	2370.753174025166	1409.61596	-1406.6695857679667	2431.5752394965	1399.75963	-1402.7587520883371	2471.303794007944	1351.60907	-321.8718285977092	2465.9577602560607	1401.69858	-309.5458631556588	2454.7291738884255	1397.65911	-572.0718926912339	2324.0511128855246	1344.33801	-1637.4002000652795	2313.3545807969317	1394.42752	-1644.3884952724247	2404.723955135687	1380.20856	-1398.4320075928488	2509.305500404045	1342.0759	-126.29037461703913	2496.907498522867	1315.90009	-215.05783382150676	2489.4731590720144	1350.80117	-283.44818022091107	2309.599406560541	1317.67746	-1830.6003068371447	2319.787989367336	1299.5806	-1739.5419451355256	2330.136210176897	1340.46011	-1674.9055963753813	2459.276315930365	885.77656	-824.5573018334946	2424.0607265195895	490.55411000000004	-824.6505141623286	2428.859682258268	484.25252000000006	-901.1405800418812	2469.572035273877	486.35305000000005	-862.7654943852925	2461.856290774752	885.2918200000001	-1147.226055346062	2433.1729323424433	489.58463000000006	-1156.2903452783971	2438.548012813023	481.50568000000004	-1079.8801189930368	2478.965602911115	485.22200000000004	-1118.6454122772452	2478.516320068039	450.64407000000006	-858.9941914199875	2392.6895727970364	83.05165000000004	-800.819164407989	2396.3240884028733	77.55796000000005	-860.8820522109907	2486.877194611514	447.89723000000004	-1123.8474285159245	2391.505477386377	83.37481000000007	-1185.8997710636281	2396.5126898990475	76.75007000000006	-1125.9585665725922	2357.761447967863	0.9694700000000515	-839.4962397156298	2515.923472439878	1.292630000000052	-847.44248889992	2502.4146780722776	-0.3231599999999526	-773.9506058238578	2530.075368686552	0.32316000000004946	-807.9018425643745	2394.327920454748	3.393160000000051	-832.7211836812918	2608.6057162009774	-0.6463199999999514	-793.5908961816615	2356.8464310803347	0.32316000000007067	-1153.9798673085152	2514.920268678508	-0.16157999999992997	-1143.731636793188	2502.517810923465	3.7163200000000747	-1217.3692059816085	2529.744233031899	1.7773700000000723	-1183.042859175996	2393.60995846835	3.393160000000071	-1160.0292636407323	2608.3655572514003	1.6157900000000733	-1196.3825653146998	
124	2.05	2465.577404968616	911.6292100000001	-985.9592190872268	2520.757063956648	1015.03983	-854.1087052754594	2524.962580062742	1011.9698200000001	-1118.4109816633681	2472.5171712925144	1076.43988	-878.8884412103091	2476.115370212232	1073.85461	-1096.6416713236094	2415.0226191381007	852.6528400000001	-931.625287144942	2416.6698783658294	851.3602100000002	-1040.5571675264514	2398.8047696792955	926.9792200000002	-987.2213299792909	2426.289631356436	1018.1098300000001	-986.6748466732149	2419.8288386897652	1128.95308	-985.9312963348466	2399.5907367367663	1228.00106	-984.1840744954087	2496.472966329816	1463.58337	-988.64201729097	2362.2064789280794	1411.23175	-979.7362043156326	2376.674304585051	1326.72589	-981.6921973228511	2520.990918657248	1349.0238	-991.7546377013266	2354.0743869761227	1465.6839	-975.8180818747273	2398.1555616128016	1715.48517	-985.9100737910499	2422.584769616427	1621.12298	-922.1668880963105	2378.419823302406	1619.83035	-1049.3205856196143	2350.6486175897767	1619.18403	-968.2955711013968	2393.358866623883	1439.50809	-823.4447629911017	2362.294622568032	1435.79177	-1138.2409853524996	2425.128117596898	1429.16703	-558.7729562005663	2484.104153686128	1413.65544	-567.7423867330021	2370.5460876938687	1409.77754	-1406.5730198257834	2431.2715778260936	1399.92121	-1402.8692758976529	2471.3590576227025	1351.12433	-322.0236641313758	2465.9577602560607	1401.21385	-309.5458631556588	2454.7291738884255	1397.33595	-572.0718926912339	2323.5403426697662	1344.49959	-1637.4141553758884	2312.843810581174	1394.75068	-1644.402450583034	2404.420284068354	1380.37014	-1398.5425348223657	2509.3607640188034	1341.42958	-126.44221015070573	2496.9627587174245	1315.25377	-215.20965995824716	2489.4731590720144	1350.31643	-283.44818022091107	2308.8815371963574	1317.83904	-1830.5176902288458	2319.277219151578	1299.74218	-1739.5559004461347	2329.625439961139	1340.62169	-1674.9195516859904	2458.876072944124	885.77656	-824.8749282114369	2423.812319067015	490.55411000000004	-824.9128769255124	2428.611271385492	484.0909500000001	-901.4029334081388	2469.268364206544	486.35305000000005	-862.8760216148097	2462.022078198826	885.2918200000001	-1147.6815525501354	2433.228195957202	489.58463000000006	-1156.4421808120637	2438.451440894115	481.50568000000004	-1080.087218141462	2479.0208665258738	485.22200000000004	-1118.7972478109118	2478.2126583976324	450.64407000000006	-859.1047152293031	2392.6895727970364	82.89007000000004	-800.819164407989	2396.3240884028733	77.55796000000005	-860.8820522109907	2486.780622692606	448.05881000000005	-1124.0545276643502	2391.505477386377	83.37481000000007	-1185.8997710636281	2396.5126898990475	76.91165000000007	-1125.9585665725922	2357.761447967863	0.8079000000000514	-839.4962397156298	2515.923472439878	1.292630000000052	-847.44248889992	2502.4146780722776	-0.4847399999999526	-773.9506058238578	2530.075368686552	0.32316000000004946	-807.9018425643745	2394.327920454748	3.393160000000051	-832.7211836812918	2608.6057162009774	-0.6463199999999514	-793.5908961816615	2356.8464310803347	0.48474000000007067	-1153.9798673085152	2514.920268678508	-0.16157999999992997	-1143.731636793188	2502.462550728908	3.7163200000000747	-1217.217379844868	2529.744233031899	1.7773700000000723	-1183.042859175996	2393.60995846835	3.393160000000071	-1160.0292636407323	2608.3102936366417	1.6157900000000733	-1196.230729781033	
125	2.067	2465.3842611308	911.6292100000001	-986.3734173840769	2520.5086565040733	1014.87825	-854.3710680386432	2525.0178436775004	1011.9698200000001	-1118.5628171970347	2472.268773236866	1076.2783	-879.1508005532914	2476.018798293324	1073.85461	-1096.8487704720346	2414.677639766618	852.6528400000001	-932.0947490565511	2416.47674392494	851.3602100000002	-1040.9713624031006	2398.611622421278	927.1408000000001	-987.6355188792148	2426.2483196320854	1018.2714100000001	-987.0337719583804	2419.5804312371906	1128.95308	-986.1936590980301	2399.6460003515244	1228.16264	-984.3359100290753	2496.3211307961496	1463.58337	-988.6972809057286	2362.151215313321	1411.23175	-979.5843687819662	2376.674304585051	1326.72589	-981.6921973228511	2520.990918657248	1349.0238	-991.7546377013266	2353.8672878276975	1465.52232	-975.7215099558193	2396.9269254530614	1715.48517	-985.841421890286	2422.28110794602	1621.28456	-922.2774119056261	2377.7019633351492	1619.83035	-1049.237965591114	2350.0825931561862	1619.02246	-968.1576874581378	2393.358866623883	1439.34651	-823.4447629911017	2362.2393589532735	1435.79177	-1138.089149818833	2425.128117596898	1428.84387	-558.7729562005663	2484.104153686128	1413.33228	-567.7423867330021	2370.242416626535	1409.77754	-1406.6835470553006	2430.9679067587604	1400.08279	-1402.97980312717	2471.3590576227025	1350.80117	-322.0236641313758	2466.013023870819	1400.72911	-309.6976986893254	2454.7291738884255	1397.01279	-572.0718926912339	2323.029572454008	1344.49959	-1637.428110686498	2312.277780170858	1394.75068	-1644.264579756903	2404.268448534687	1380.53172	-1398.5977984371243	2509.5678537703025	1340.78327	-126.53878548981518	2497.114594251091	1314.76903	-215.15439634348868	2489.528422686773	1349.8317	-283.60001575457744	2308.1636806493016	1318.00062	-1830.4350795972714	2318.5593497873942	1299.90376	-1739.4732838378359	2329.1146697453805	1340.78327	-1674.9335069965996	2458.475839354809	885.77656	-825.1925511691778	2423.5086479996817	490.55411000000004	-825.0234041550295	2428.459435851825	484.0909500000001	-901.4581970228974	2469.171792287636	486.35305000000005	-863.0831207632347	2461.9807698946765	885.2918200000001	-1148.040487232227	2433.1868876530525	489.58463000000006	-1156.8011154941555	2438.3548783721335	481.50568000000004	-1080.2943138696855	2478.869030992207	485.22200000000004	-1118.8525114256704	2478.1160864787244	450.64407000000006	-859.3118143777283	2392.6895727970364	82.89007000000004	-800.819164407989	2396.3240884028733	77.39638000000005	-860.8820522109907	2486.8358863073645	448.05881000000005	-1124.2063631980168	2391.505477386377	83.37481000000007	-1185.8997710636281	2396.5126898990475	76.91165000000007	-1125.9585665725922	2357.7061843531046	0.8079000000000514	-839.3444041819632	2515.923472439878	1.292630000000052	-847.44248889992	2502.4146780722776	-0.4847399999999526	-773.9506058238578	2530.075368686552	0.32316000000004946	-807.9018425643745	2394.327920454748	3.393160000000051	-832.7211836812918	2608.6057162009774	-0.6463199999999514	-793.5908961816615	2356.8464310803347	0.48474000000007067	-1153.9798673085152	2514.920268678508	-0.16157999999992997	-1143.731636793188	2502.6143862625745	3.7163200000000747	-1217.1621162301094	2529.744233031899	1.7773700000000723	-1183.042859175996	2393.60995846835	3.393160000000071	-1160.0292636407323	2608.4621291703083	1.6157900000000733	-1196.1754661662744	
126	2.083	2465.135853678225	911.6292100000001	-986.6357801472607	2520.2049854367397	1014.87825	-854.4815952681604	2524.97653195315	1011.9698200000001	-1118.9217424822	2472.0203657842912	1076.2783	-879.4131633164752	2475.9222229542142	1074.01619	-1097.0558602235333	2414.277406177303	852.6528400000001	-932.4123720142919	2416.2283364723653	851.5217900000001	-1041.233725166284	2398.418478583462	927.1408000000001	-988.0497171760652	2425.999912179511	1018.2714100000001	-987.2961347215643	2419.4838593182826	1128.95308	-986.4007582464553	2399.494164817858	1228.16264	-984.3911736438339	2496.3211307961496	1463.58337	-988.6972809057286	2361.999379779654	1411.39333	-979.6396323967247	2376.5224690513837	1326.88747	-981.7474609376098	2520.8390831235815	1349.0238	-991.8099013160852	2353.8672878276975	1465.52232	-975.7215099558193	2395.753558884804	1715.64675	-985.9245927060616	2421.7703377302614	1621.60772	-922.2913672162352	2376.832258437299	1619.66877	-1049.2106125975736	2349.5165593256693	1618.86088	-968.0198072350804	2393.358866623883	1439.18493	-823.4447629911017	2362.087523419607	1435.95335	-1138.1444134335916	2425.128117596898	1428.68229	-558.7729562005663	2484.104153686128	1413.00912	-567.7423867330021	2369.8834819444437	1409.93912	-1406.6422387511511	2430.760807610335	1400.08279	-1402.8832312082618	2471.414321237461	1350.31643	-322.1754996650424	2466.1648594044864	1400.24437	-309.6424350745667	2454.7291738884255	1396.85121	-572.0718926912339	2322.463548020417	1344.49959	-1637.2902270432387	2311.918854885693	1394.75068	-1644.223268032552	2403.9095138525954	1380.53172	-1398.5564901329751	2509.5678537703025	1340.29853	-126.53878548981518	2497.1698578658493	1314.2843	-215.30623187715528	2489.528422686773	1349.34696	-283.60001575457744	2307.2939757514514	1317.83904	-1830.4077266037316	2317.841489820137	1299.74218	-1739.3906638093354	2328.396809778123	1340.78327	-1674.8508869680995	2458.075596368568	885.77656	-825.5101775471203	2423.4120760807737	490.3925300000001	-825.2305033034546	2428.362863932917	483.92937000000006	-901.6652961713226	2469.0199567539694	486.19147000000004	-863.1383843779931	2461.884197975768	885.2918200000001	-1148.2475863806521	2433.242151267811	489.58463000000006	-1156.952951027822	2438.3135666477824	481.66726000000006	-1080.653239154851	2478.9242946069658	485.38358000000005	-1119.0043469593375	2478.0195145598163	450.64407000000006	-859.5189135261535	2392.6895727970364	82.89007000000004	-800.819164407989	2396.3240884028733	77.39638000000005	-860.8820522109907	2486.684050773698	448.05881000000005	-1124.2616268127754	2391.505477386377	83.37481000000007	-1185.8997710636281	2396.3608543653804	76.91165000000007	-1126.0138301873508	2357.7061843531046	0.8079000000000514	-839.3444041819632	2515.923472439878	1.292630000000052	-847.44248889992	2502.4146780722776	-0.4847399999999526	-773.9506058238578	2530.075368686552	0.32316000000004946	-807.9018425643745	2394.1760849210814	3.393160000000051	-832.7764472960503	2608.6057162009774	-0.6463199999999514	-793.5908961816615	2356.8464310803347	0.48474000000007067	-1153.9798673085152	2514.920268678508	-0.16157999999992997	-1143.731636793188	2502.6143862625745	3.7163200000000747	-1217.1621162301094	2529.840804950807	1.9389500000000723	-1182.8357600275708	2393.5546948535916	3.393160000000071	-1159.8774281070655	2608.4621291703083	1.6157900000000733	-1196.1754661662744	
